<mxfile host="app.diagrams.net" agent="Mozilla/5.0 (Windows NT 10.0; Win64; x64) AppleWebKit/537.36 (KHTML, like Gecko) Chrome/134.0.0.0 Safari/537.36" version="26.1.0">
  <diagram name="Страница — 1" id="5DXtqInjiRX0ER2sjh2b">
    <mxGraphModel dx="1049" dy="546" grid="1" gridSize="10" guides="1" tooltips="1" connect="1" arrows="1" fold="1" page="1" pageScale="1" pageWidth="827" pageHeight="1169" math="0" shadow="0">
      <root>
        <mxCell id="0" />
        <mxCell id="1" parent="0" />
        <mxCell id="Xm8V66b_yoOwak4UAtMe-11" style="edgeStyle=orthogonalEdgeStyle;rounded=0;orthogonalLoop=1;jettySize=auto;html=1;exitX=0.5;exitY=1;exitDx=0;exitDy=0;entryX=0.5;entryY=0;entryDx=0;entryDy=0;endArrow=none;startFill=0;" edge="1" parent="1" source="Xm8V66b_yoOwak4UAtMe-1" target="Xm8V66b_yoOwak4UAtMe-10">
          <mxGeometry relative="1" as="geometry" />
        </mxCell>
        <mxCell id="Xm8V66b_yoOwak4UAtMe-1" value="початок" style="rounded=1;whiteSpace=wrap;html=1;arcSize=50;" vertex="1" parent="1">
          <mxGeometry x="320" y="100" width="110" height="40" as="geometry" />
        </mxCell>
        <mxCell id="Xm8V66b_yoOwak4UAtMe-14" style="edgeStyle=orthogonalEdgeStyle;rounded=0;orthogonalLoop=1;jettySize=auto;html=1;exitX=0.5;exitY=1;exitDx=0;exitDy=0;entryX=0;entryY=0.5;entryDx=0;entryDy=0;" edge="1" parent="1" source="Xm8V66b_yoOwak4UAtMe-2" target="Xm8V66b_yoOwak4UAtMe-5">
          <mxGeometry relative="1" as="geometry" />
        </mxCell>
        <mxCell id="Xm8V66b_yoOwak4UAtMe-2" value="Ввід масива&amp;nbsp;&lt;div&gt;на 10&amp;nbsp;&lt;div&gt;елементів&amp;nbsp;&lt;/div&gt;&lt;/div&gt;" style="shape=parallelogram;perimeter=parallelogramPerimeter;whiteSpace=wrap;html=1;fixedSize=1;" vertex="1" parent="1">
          <mxGeometry x="310" y="350" width="120" height="60" as="geometry" />
        </mxCell>
        <mxCell id="Xm8V66b_yoOwak4UAtMe-13" style="edgeStyle=orthogonalEdgeStyle;rounded=0;orthogonalLoop=1;jettySize=auto;html=1;exitX=0.5;exitY=1;exitDx=0;exitDy=0;entryX=0.5;entryY=0;entryDx=0;entryDy=0;" edge="1" parent="1" source="Xm8V66b_yoOwak4UAtMe-5" target="Xm8V66b_yoOwak4UAtMe-2">
          <mxGeometry relative="1" as="geometry" />
        </mxCell>
        <mxCell id="Xm8V66b_yoOwak4UAtMe-23" style="edgeStyle=orthogonalEdgeStyle;rounded=0;orthogonalLoop=1;jettySize=auto;html=1;exitX=1;exitY=0.5;exitDx=0;exitDy=0;entryX=0.5;entryY=0;entryDx=0;entryDy=0;" edge="1" parent="1" source="Xm8V66b_yoOwak4UAtMe-5" target="Xm8V66b_yoOwak4UAtMe-16">
          <mxGeometry relative="1" as="geometry">
            <Array as="points">
              <mxPoint x="450" y="280" />
              <mxPoint x="450" y="440" />
              <mxPoint x="370" y="440" />
            </Array>
          </mxGeometry>
        </mxCell>
        <mxCell id="Xm8V66b_yoOwak4UAtMe-5" value="&amp;nbsp;i = 0, i &amp;lt; 10, 1" style="shape=hexagon;perimeter=hexagonPerimeter2;whiteSpace=wrap;html=1;fixedSize=1;" vertex="1" parent="1">
          <mxGeometry x="310" y="240" width="120" height="80" as="geometry" />
        </mxCell>
        <mxCell id="Xm8V66b_yoOwak4UAtMe-12" style="edgeStyle=orthogonalEdgeStyle;rounded=0;orthogonalLoop=1;jettySize=auto;html=1;exitX=0.5;exitY=1;exitDx=0;exitDy=0;entryX=0.5;entryY=0;entryDx=0;entryDy=0;endArrow=none;startFill=0;" edge="1" parent="1" source="Xm8V66b_yoOwak4UAtMe-10" target="Xm8V66b_yoOwak4UAtMe-5">
          <mxGeometry relative="1" as="geometry" />
        </mxCell>
        <mxCell id="Xm8V66b_yoOwak4UAtMe-10" value="Введіть&lt;div&gt;&amp;nbsp;масива&amp;nbsp;&lt;div&gt;на 10&amp;nbsp;&lt;div&gt;елементів&amp;nbsp;&lt;/div&gt;&lt;/div&gt;&lt;/div&gt;" style="shape=parallelogram;perimeter=parallelogramPerimeter;whiteSpace=wrap;html=1;fixedSize=1;" vertex="1" parent="1">
          <mxGeometry x="315" y="160" width="120" height="60" as="geometry" />
        </mxCell>
        <mxCell id="Xm8V66b_yoOwak4UAtMe-27" style="edgeStyle=orthogonalEdgeStyle;rounded=0;orthogonalLoop=1;jettySize=auto;html=1;entryX=0.5;entryY=0;entryDx=0;entryDy=0;" edge="1" parent="1" source="Xm8V66b_yoOwak4UAtMe-16" target="Xm8V66b_yoOwak4UAtMe-26">
          <mxGeometry relative="1" as="geometry">
            <Array as="points">
              <mxPoint x="450" y="500" />
              <mxPoint x="450" y="640" />
              <mxPoint x="370" y="640" />
            </Array>
          </mxGeometry>
        </mxCell>
        <mxCell id="Xm8V66b_yoOwak4UAtMe-16" value="&amp;nbsp;i = 0, i &amp;lt; 10, 1" style="shape=hexagon;perimeter=hexagonPerimeter2;whiteSpace=wrap;html=1;fixedSize=1;" vertex="1" parent="1">
          <mxGeometry x="310" y="460" width="120" height="80" as="geometry" />
        </mxCell>
        <mxCell id="Xm8V66b_yoOwak4UAtMe-24" style="edgeStyle=orthogonalEdgeStyle;rounded=0;orthogonalLoop=1;jettySize=auto;html=1;exitX=0;exitY=0.5;exitDx=0;exitDy=0;entryX=0;entryY=0.5;entryDx=0;entryDy=0;" edge="1" parent="1" source="Xm8V66b_yoOwak4UAtMe-18" target="Xm8V66b_yoOwak4UAtMe-16">
          <mxGeometry relative="1" as="geometry">
            <Array as="points">
              <mxPoint x="290" y="600" />
              <mxPoint x="290" y="500" />
            </Array>
          </mxGeometry>
        </mxCell>
        <mxCell id="Xm8V66b_yoOwak4UAtMe-18" value="Вивід масива&amp;nbsp;&lt;div&gt;на 10 елементів&amp;nbsp;&lt;/div&gt;" style="shape=parallelogram;perimeter=parallelogramPerimeter;whiteSpace=wrap;html=1;fixedSize=1;" vertex="1" parent="1">
          <mxGeometry x="300" y="570" width="120" height="60" as="geometry" />
        </mxCell>
        <mxCell id="Xm8V66b_yoOwak4UAtMe-29" style="edgeStyle=orthogonalEdgeStyle;rounded=0;orthogonalLoop=1;jettySize=auto;html=1;exitX=0.5;exitY=1;exitDx=0;exitDy=0;entryX=0.5;entryY=0;entryDx=0;entryDy=0;endArrow=none;startFill=0;" edge="1" parent="1" source="Xm8V66b_yoOwak4UAtMe-26" target="Xm8V66b_yoOwak4UAtMe-28">
          <mxGeometry relative="1" as="geometry" />
        </mxCell>
        <mxCell id="Xm8V66b_yoOwak4UAtMe-26" value="Ініціалізація&amp;nbsp;&lt;div&gt;maxIndex = 0&lt;/div&gt;" style="rounded=0;whiteSpace=wrap;html=1;" vertex="1" parent="1">
          <mxGeometry x="310" y="660" width="120" height="60" as="geometry" />
        </mxCell>
        <mxCell id="Xm8V66b_yoOwak4UAtMe-31" style="edgeStyle=orthogonalEdgeStyle;rounded=0;orthogonalLoop=1;jettySize=auto;html=1;exitX=0.5;exitY=1;exitDx=0;exitDy=0;entryX=0.5;entryY=0;entryDx=0;entryDy=0;" edge="1" parent="1" source="Xm8V66b_yoOwak4UAtMe-28" target="Xm8V66b_yoOwak4UAtMe-30">
          <mxGeometry relative="1" as="geometry" />
        </mxCell>
        <mxCell id="Xm8V66b_yoOwak4UAtMe-48" style="edgeStyle=orthogonalEdgeStyle;rounded=0;orthogonalLoop=1;jettySize=auto;html=1;" edge="1" parent="1" source="Xm8V66b_yoOwak4UAtMe-28" target="Xm8V66b_yoOwak4UAtMe-47">
          <mxGeometry relative="1" as="geometry">
            <Array as="points">
              <mxPoint x="490" y="790" />
              <mxPoint x="490" y="1110" />
              <mxPoint x="365" y="1110" />
            </Array>
          </mxGeometry>
        </mxCell>
        <mxCell id="Xm8V66b_yoOwak4UAtMe-28" value="&amp;nbsp;i = 0, i &amp;lt; 10, 1" style="shape=hexagon;perimeter=hexagonPerimeter2;whiteSpace=wrap;html=1;fixedSize=1;" vertex="1" parent="1">
          <mxGeometry x="310" y="750" width="120" height="80" as="geometry" />
        </mxCell>
        <mxCell id="Xm8V66b_yoOwak4UAtMe-34" style="edgeStyle=orthogonalEdgeStyle;rounded=0;orthogonalLoop=1;jettySize=auto;html=1;exitX=0.5;exitY=1;exitDx=0;exitDy=0;entryX=0.5;entryY=0;entryDx=0;entryDy=0;" edge="1" parent="1" source="Xm8V66b_yoOwak4UAtMe-30" target="Xm8V66b_yoOwak4UAtMe-36">
          <mxGeometry relative="1" as="geometry">
            <mxPoint x="370" y="1010" as="targetPoint" />
            <Array as="points">
              <mxPoint x="370" y="985" />
              <mxPoint x="371" y="985" />
              <mxPoint x="371" y="1010" />
            </Array>
          </mxGeometry>
        </mxCell>
        <mxCell id="Xm8V66b_yoOwak4UAtMe-35" value="так" style="edgeLabel;html=1;align=center;verticalAlign=middle;resizable=0;points=[];" vertex="1" connectable="0" parent="Xm8V66b_yoOwak4UAtMe-34">
          <mxGeometry x="-0.1287" y="-1" relative="1" as="geometry">
            <mxPoint as="offset" />
          </mxGeometry>
        </mxCell>
        <mxCell id="Xm8V66b_yoOwak4UAtMe-45" style="edgeStyle=orthogonalEdgeStyle;rounded=0;orthogonalLoop=1;jettySize=auto;html=1;" edge="1" parent="1" source="Xm8V66b_yoOwak4UAtMe-30">
          <mxGeometry relative="1" as="geometry">
            <mxPoint x="290" y="1050" as="targetPoint" />
            <Array as="points">
              <mxPoint x="460" y="910" />
              <mxPoint x="460" y="1100" />
              <mxPoint x="290" y="1100" />
            </Array>
          </mxGeometry>
        </mxCell>
        <mxCell id="Xm8V66b_yoOwak4UAtMe-46" value="ні" style="edgeLabel;html=1;align=center;verticalAlign=middle;resizable=0;points=[];" vertex="1" connectable="0" parent="Xm8V66b_yoOwak4UAtMe-45">
          <mxGeometry x="-0.8962" relative="1" as="geometry">
            <mxPoint as="offset" />
          </mxGeometry>
        </mxCell>
        <mxCell id="Xm8V66b_yoOwak4UAtMe-30" value="array[i] &amp;gt; array[maxIndex]" style="rhombus;whiteSpace=wrap;html=1;" vertex="1" parent="1">
          <mxGeometry x="315" y="860" width="110" height="100" as="geometry" />
        </mxCell>
        <mxCell id="Xm8V66b_yoOwak4UAtMe-44" style="edgeStyle=orthogonalEdgeStyle;rounded=0;orthogonalLoop=1;jettySize=auto;html=1;entryX=0;entryY=0.5;entryDx=0;entryDy=0;" edge="1" parent="1" source="Xm8V66b_yoOwak4UAtMe-36" target="Xm8V66b_yoOwak4UAtMe-28">
          <mxGeometry relative="1" as="geometry">
            <Array as="points">
              <mxPoint x="290" y="1050" />
              <mxPoint x="290" y="790" />
            </Array>
          </mxGeometry>
        </mxCell>
        <mxCell id="Xm8V66b_yoOwak4UAtMe-36" value="maxIndex = i" style="rounded=0;whiteSpace=wrap;html=1;" vertex="1" parent="1">
          <mxGeometry x="310" y="1020" width="120" height="60" as="geometry" />
        </mxCell>
        <mxCell id="Xm8V66b_yoOwak4UAtMe-50" style="edgeStyle=orthogonalEdgeStyle;rounded=0;orthogonalLoop=1;jettySize=auto;html=1;exitX=0.5;exitY=1;exitDx=0;exitDy=0;entryX=0.5;entryY=0;entryDx=0;entryDy=0;endArrow=none;startFill=0;" edge="1" parent="1" source="Xm8V66b_yoOwak4UAtMe-47" target="Xm8V66b_yoOwak4UAtMe-49">
          <mxGeometry relative="1" as="geometry" />
        </mxCell>
        <mxCell id="Xm8V66b_yoOwak4UAtMe-47" value="Вивід максимального елементу" style="shape=parallelogram;perimeter=parallelogramPerimeter;whiteSpace=wrap;html=1;fixedSize=1;" vertex="1" parent="1">
          <mxGeometry x="305" y="1140" width="120" height="60" as="geometry" />
        </mxCell>
        <mxCell id="Xm8V66b_yoOwak4UAtMe-51" style="edgeStyle=orthogonalEdgeStyle;rounded=0;orthogonalLoop=1;jettySize=auto;html=1;exitX=0.5;exitY=1;exitDx=0;exitDy=0;entryX=0.5;entryY=0;entryDx=0;entryDy=0;" edge="1" parent="1" source="Xm8V66b_yoOwak4UAtMe-49" target="Xm8V66b_yoOwak4UAtMe-53">
          <mxGeometry relative="1" as="geometry">
            <mxPoint x="360.16666666666674" y="1380" as="targetPoint" />
            <Array as="points">
              <mxPoint x="360" y="1380" />
            </Array>
          </mxGeometry>
        </mxCell>
        <mxCell id="Xm8V66b_yoOwak4UAtMe-52" value="так" style="edgeLabel;html=1;align=center;verticalAlign=middle;resizable=0;points=[];" vertex="1" connectable="0" parent="Xm8V66b_yoOwak4UAtMe-51">
          <mxGeometry x="-0.4935" y="-4" relative="1" as="geometry">
            <mxPoint as="offset" />
          </mxGeometry>
        </mxCell>
        <mxCell id="Xm8V66b_yoOwak4UAtMe-54" style="edgeStyle=orthogonalEdgeStyle;rounded=0;orthogonalLoop=1;jettySize=auto;html=1;exitX=1;exitY=0.5;exitDx=0;exitDy=0;entryX=0.5;entryY=0;entryDx=0;entryDy=0;" edge="1" parent="1" source="Xm8V66b_yoOwak4UAtMe-49" target="Xm8V66b_yoOwak4UAtMe-56">
          <mxGeometry relative="1" as="geometry">
            <mxPoint x="560" y="1330" as="targetPoint" />
          </mxGeometry>
        </mxCell>
        <mxCell id="Xm8V66b_yoOwak4UAtMe-55" value="ні" style="edgeLabel;html=1;align=center;verticalAlign=middle;resizable=0;points=[];" vertex="1" connectable="0" parent="Xm8V66b_yoOwak4UAtMe-54">
          <mxGeometry x="-0.4837" y="4" relative="1" as="geometry">
            <mxPoint as="offset" />
          </mxGeometry>
        </mxCell>
        <mxCell id="Xm8V66b_yoOwak4UAtMe-49" value="maxIndex == 0" style="rhombus;whiteSpace=wrap;html=1;" vertex="1" parent="1">
          <mxGeometry x="310" y="1220" width="100" height="100" as="geometry" />
        </mxCell>
        <mxCell id="Xm8V66b_yoOwak4UAtMe-67" style="edgeStyle=orthogonalEdgeStyle;rounded=0;orthogonalLoop=1;jettySize=auto;html=1;exitX=0.5;exitY=1;exitDx=0;exitDy=0;entryX=0.5;entryY=0;entryDx=0;entryDy=0;" edge="1" parent="1" source="Xm8V66b_yoOwak4UAtMe-53" target="Xm8V66b_yoOwak4UAtMe-58">
          <mxGeometry relative="1" as="geometry" />
        </mxCell>
        <mxCell id="Xm8V66b_yoOwak4UAtMe-53" value="Перший елемент&lt;div&gt;&amp;nbsp;вже&lt;div&gt;&amp;nbsp;максимальний&lt;/div&gt;&lt;/div&gt;" style="shape=parallelogram;perimeter=parallelogramPerimeter;whiteSpace=wrap;html=1;fixedSize=1;" vertex="1" parent="1">
          <mxGeometry x="292.5" y="1380" width="135" height="70" as="geometry" />
        </mxCell>
        <mxCell id="Xm8V66b_yoOwak4UAtMe-64" style="edgeStyle=orthogonalEdgeStyle;rounded=0;orthogonalLoop=1;jettySize=auto;html=1;exitX=0.5;exitY=1;exitDx=0;exitDy=0;entryX=0.5;entryY=0;entryDx=0;entryDy=0;" edge="1" parent="1" source="Xm8V66b_yoOwak4UAtMe-56" target="Xm8V66b_yoOwak4UAtMe-60">
          <mxGeometry relative="1" as="geometry" />
        </mxCell>
        <mxCell id="Xm8V66b_yoOwak4UAtMe-56" value="&lt;div&gt;int temp = array[0];&lt;span style=&quot;background-color: transparent; color: light-dark(rgb(0, 0, 0), rgb(255, 255, 255));&quot;&gt;&amp;nbsp; &amp;nbsp; &amp;nbsp; &amp;nbsp;&amp;nbsp;&lt;/span&gt;&lt;span style=&quot;background-color: transparent; color: light-dark(rgb(0, 0, 0), rgb(255, 255, 255));&quot;&gt;array[0]=array[maxIndex];&lt;/span&gt;&lt;/div&gt;&lt;div&gt;&lt;span style=&quot;background-color: transparent; color: light-dark(rgb(0, 0, 0), rgb(255, 255, 255));&quot;&gt;&amp;nbsp;array[maxIndex] = temp;&lt;/span&gt;&lt;/div&gt;" style="rounded=0;whiteSpace=wrap;html=1;" vertex="1" parent="1">
          <mxGeometry x="490" y="1300" width="140" height="60" as="geometry" />
        </mxCell>
        <mxCell id="Xm8V66b_yoOwak4UAtMe-58" value="кінець" style="rounded=1;whiteSpace=wrap;html=1;arcSize=50;" vertex="1" parent="1">
          <mxGeometry x="305" y="1640" width="110" height="40" as="geometry" />
        </mxCell>
        <mxCell id="Xm8V66b_yoOwak4UAtMe-63" style="edgeStyle=orthogonalEdgeStyle;rounded=0;orthogonalLoop=1;jettySize=auto;html=1;exitX=0.5;exitY=1;exitDx=0;exitDy=0;entryX=0.5;entryY=0;entryDx=0;entryDy=0;" edge="1" parent="1" source="Xm8V66b_yoOwak4UAtMe-60" target="Xm8V66b_yoOwak4UAtMe-62">
          <mxGeometry relative="1" as="geometry" />
        </mxCell>
        <mxCell id="Xm8V66b_yoOwak4UAtMe-68" style="edgeStyle=orthogonalEdgeStyle;rounded=0;orthogonalLoop=1;jettySize=auto;html=1;exitX=1;exitY=0.5;exitDx=0;exitDy=0;entryX=0.5;entryY=0;entryDx=0;entryDy=0;" edge="1" parent="1" source="Xm8V66b_yoOwak4UAtMe-60" target="Xm8V66b_yoOwak4UAtMe-58">
          <mxGeometry relative="1" as="geometry">
            <Array as="points">
              <mxPoint x="640" y="1420" />
              <mxPoint x="640" y="1610" />
              <mxPoint x="360" y="1610" />
            </Array>
          </mxGeometry>
        </mxCell>
        <mxCell id="Xm8V66b_yoOwak4UAtMe-60" value="&amp;nbsp;i = 0, i &amp;lt; 10, 1" style="shape=hexagon;perimeter=hexagonPerimeter2;whiteSpace=wrap;html=1;fixedSize=1;" vertex="1" parent="1">
          <mxGeometry x="500" y="1380" width="120" height="80" as="geometry" />
        </mxCell>
        <mxCell id="Xm8V66b_yoOwak4UAtMe-61" style="edgeStyle=orthogonalEdgeStyle;rounded=0;orthogonalLoop=1;jettySize=auto;html=1;exitX=0;exitY=0.5;exitDx=0;exitDy=0;entryX=0;entryY=0.5;entryDx=0;entryDy=0;" edge="1" parent="1" source="Xm8V66b_yoOwak4UAtMe-62" target="Xm8V66b_yoOwak4UAtMe-60">
          <mxGeometry relative="1" as="geometry">
            <Array as="points">
              <mxPoint x="480" y="1520" />
              <mxPoint x="480" y="1420" />
            </Array>
          </mxGeometry>
        </mxCell>
        <mxCell id="Xm8V66b_yoOwak4UAtMe-62" value="Вивід масива&amp;nbsp;&lt;div&gt;після перестановки&amp;nbsp;&lt;/div&gt;" style="shape=parallelogram;perimeter=parallelogramPerimeter;whiteSpace=wrap;html=1;fixedSize=1;" vertex="1" parent="1">
          <mxGeometry x="490" y="1490" width="140" height="60" as="geometry" />
        </mxCell>
      </root>
    </mxGraphModel>
  </diagram>
</mxfile>
